<svg width="680" height="470" viewBox="0 0 680 470" role="img" xmlns="http://www.w3.org/2000/svg"><title>شعار تاكي — رأس بغترة ويد تتصفح جوالاً فوق تكاية</title><desc>رسمة مبسطة بدون نص: رأس بغترة بيضاء بدون ملامح وبدون قماش نازل، يد مسنودة على تكاية عنابية بمعينات ذهبية، ويد أخرى تمسك جوالاً ظهره للمشاهد وشاشته نحو الشخص</desc>
<rect x="170" y="330" width="180" height="100" rx="24" fill="#7A1322" stroke="#4E0A14" stroke-width="2.5"/>
<path d="M210 347.5 L216 355 L210 362.5 L204 355 Z" fill="#E4A93C"/>
<path d="M255 339.5 L261 347 L255 354.5 L249 347 Z" fill="#E4A93C"/>
<path d="M300 347.5 L306 355 L300 362.5 L294 355 Z" fill="#E4A93C"/>
<path d="M230 384.5 L236 392 L230 399.5 L224 392 Z" fill="#E4A93C"/>
<path d="M275 384.5 L281 392 L275 399.5 L269 392 Z" fill="#E4A93C"/>
<path d="M318 376.5 L324 384 L318 391.5 L312 384 Z" fill="#E4A93C"/>
<circle cx="250" cy="326" r="12" fill="#E8B48C"/>
<circle cx="330" cy="225" r="46" fill="#F7F1E6"/>
<circle cx="330" cy="235" r="31" fill="#E8B48C"/>
<g transform="rotate(-16 448 265)">
<rect x="425" y="220" width="46" height="88" rx="10" fill="#241B26"/>
<rect x="431" y="228" width="16" height="26" rx="8" fill="#3A2E3E"/>
<circle cx="439" cy="236" r="4" fill="#0F0B13"/>
<circle cx="439" cy="248" r="4" fill="#0F0B13"/>
<path d="M448 267 L454 275 L448 283 L442 275 Z" fill="#E4A93C"/>
</g>
<circle cx="441" cy="312" r="13" fill="#E8B48C"/>
</svg>
