<svg width="680" height="510" viewBox="0 0 680 510" role="img" xmlns="http://www.w3.org/2000/svg"><title>شعار تاكي — شخص واقعي مصغر متكئ على تكاية ثلاثية الأبعاد يتصفح جواله</title><desc>رسمة واقعية مصغرة بدون نص: رجل بملامح جانبية ولحية وشماغ أحمر بعقال، كتفه ورقبته ظاهرة خلف تكاية مخملية عنابية ثلاثية الأبعاد بمعينات ذهبية، كوعه على طرفها الأخير ويده بأصابع تمسك جوالاً ظهره للمشاهد قبال وجهه</desc>
<path d="M470 300 C 478 242, 502 208, 536 196 C 566 186, 592 210, 596 260 C 599 300, 597 330, 592 356 C 550 376, 496 372, 468 350 Z" fill="#4A3529"/>
<path d="M528 200 C 527 184, 528 172, 530 162 L554 162 C 554 174, 555 186, 557 198 Z" fill="#5A3A28"/>
<path d="M180 300 L310 248 L480 220 L350 272 Z" fill="#93202F" stroke="#4E0A14" stroke-width="2" stroke-linejoin="round"/>
<path d="M310 248 L480 220 L485 345 L315 428 Z" fill="#7A1322" stroke="#4E0A14" stroke-width="2" stroke-linejoin="round"/>
<path d="M180 300 L310 248 L315 428 L185 470 Z" fill="#5E0D19" stroke="#4E0A14" stroke-width="2" stroke-linejoin="round"/>
<path d="M350 256 L355 262 L350 268 L345 262 Z" fill="#E4A93C"/>
<path d="M420 234 L425 240 L420 246 L415 240 Z" fill="#E4A93C"/>
<path d="M225 322 L232 330 L225 338 L218 330 Z" fill="#E4A93C"/>
<path d="M268 300 L275 308 L268 316 L261 308 Z" fill="#E4A93C"/>
<path d="M235 382 L242 390 L235 398 L228 390 Z" fill="#E4A93C"/>
<path d="M272 357 L279 365 L272 373 L265 365 Z" fill="#E4A93C"/>
<path d="M222 428 L228 435 L222 442 L216 435 Z" fill="#E4A93C"/>
<path d="M355 267 L362 275 L355 283 L348 275 Z" fill="#E4A93C"/>
<path d="M410 254 L417 262 L410 270 L403 262 Z" fill="#E4A93C"/>
<path d="M455 243 L461 250 L455 257 L449 250 Z" fill="#E4A93C"/>
<path d="M350 322 L357 330 L350 338 L343 330 Z" fill="#E4A93C"/>
<path d="M405 307 L412 315 L405 323 L398 315 Z" fill="#E4A93C"/>
<path d="M455 293 L461 300 L455 307 L449 300 Z" fill="#E4A93C"/>
<path d="M355 374 L361.5 382 L355 390 L348.5 382 Z" fill="#E4A93C"/>
<path d="M408 354 L414.5 362 L408 370 L401.5 362 Z" fill="#E4A93C"/>
<path d="M472 230 C 460 212, 453 198, 452 184" fill="none" stroke="#4A3529" stroke-width="20" stroke-linecap="round"/>
<path d="M556 160 C 572 150, 578 122, 566 104 C 556 88, 534 84, 522 96 C 516 102, 513 110, 512 118 C 510 121, 507 123, 508 126 C 509 129, 512 129, 514 132 C 514 138, 513 142, 516 146 C 520 152, 528 158, 540 160 Z" fill="#6B4630"/>
<path d="M508 126 C 509 129, 512 129, 514 132 C 514 138, 513 142, 516 146 C 520 152, 528 158, 540 160 L 548 158 C 544 148, 540 140, 536 134 C 528 130, 516 127, 508 126 Z" fill="#3B2317"/>
<path d="M506 114 C 504 86, 528 70, 548 72 C 570 74, 582 96, 580 126 L566 120 C 566 98, 556 88, 544 88 C 530 88, 518 96, 518 116 Z" fill="#BE3A34"/>
<path d="M520 94 C 534 86, 554 86, 566 94" fill="none" stroke="#A02C28" stroke-width="3" stroke-linecap="round"/>
<path d="M514 112 C 530 96, 558 94, 574 110" fill="none" stroke="#1C1310" stroke-width="7" stroke-linecap="round"/>
<path d="M512 102 C 528 86, 560 84, 576 100" fill="none" stroke="#1C1310" stroke-width="7" stroke-linecap="round"/>
<g transform="rotate(6 450 128)">
<rect x="428" y="89" width="44" height="78" rx="9" fill="#241B26"/>
<rect x="434" y="99" width="14" height="24" rx="7" fill="#322838"/>
<circle cx="441" cy="106" r="3.5" fill="#120D16"/>
<circle cx="441" cy="116" r="3.5" fill="#120D16"/>
<path d="M451 132 L457.5 140 L451 148 L444.5 140 Z" fill="#E4A93C"/>
</g>
<circle cx="450" cy="172" r="11" fill="#6B4630"/>
<path d="M444 170 C 438 162, 436 154, 438 148" fill="none" stroke="#6B4630" stroke-width="8" stroke-linecap="round"/>
<circle cx="468" cy="160" r="4.5" fill="#6B4630"/>
<circle cx="468" cy="149" r="4.5" fill="#6B4630"/>
</svg>
