<svg width="680" height="520" viewBox="0 0 680 520" role="img" xmlns="http://www.w3.org/2000/svg"><title>شعار تاكي — ذراع متكئة على تكاية طولية وجوال ظهره للمشاهد</title><desc>رسمة فيكتور بدون نص: تكاية مخملية عنابية واقفة بشكل طولي مليئة بمعينات ذهبية، كوع مسنود على أعلاها وذراع ترفع جوالاً شاشته نحو وجه غامق بدون ملامح يلبس شماغاً أحمر بعقال</desc>
<rect x="210" y="180" width="150" height="290" rx="26" fill="#7A1322" stroke="#4E0A14" stroke-width="3"/>
<path d="M252 212 L260 220 L252 228 L244 220 Z" fill="#E4A93C"/>
<path d="M318 212 L326 220 L318 228 L310 220 Z" fill="#E4A93C"/>
<path d="M285 237 L293 245 L285 253 L277 245 Z" fill="#E4A93C"/>
<path d="M252 262 L260 270 L252 278 L244 270 Z" fill="#E4A93C"/>
<path d="M318 262 L326 270 L318 278 L310 270 Z" fill="#E4A93C"/>
<path d="M285 287 L293 295 L285 303 L277 295 Z" fill="#E4A93C"/>
<path d="M252 312 L260 320 L252 328 L244 320 Z" fill="#E4A93C"/>
<path d="M318 312 L326 320 L318 328 L310 320 Z" fill="#E4A93C"/>
<path d="M285 337 L293 345 L285 353 L277 345 Z" fill="#E4A93C"/>
<path d="M252 362 L260 370 L252 378 L244 370 Z" fill="#E4A93C"/>
<path d="M318 362 L326 370 L318 378 L310 370 Z" fill="#E4A93C"/>
<path d="M285 387 L293 395 L285 403 L277 395 Z" fill="#E4A93C"/>
<path d="M252 412 L260 420 L252 428 L244 420 Z" fill="#E4A93C"/>
<path d="M318 412 L326 420 L318 428 L310 420 Z" fill="#E4A93C"/>
<path d="M300 172 C 315 150, 350 135, 382 128" fill="none" stroke="#4A3529" stroke-width="24" stroke-linecap="round"/>
<circle cx="485" cy="140" r="42" fill="#BE3A34"/>
<ellipse cx="485" cy="113" rx="30" ry="8" fill="none" stroke="#221812" stroke-width="7"/>
<circle cx="485" cy="148" r="30" fill="#6B4630"/>
<g transform="rotate(14 399 100)">
<rect x="378" y="62" width="42" height="76" rx="9" fill="#241B26"/>
<circle cx="390" cy="80" r="5" fill="#3A2F3E"/>
<circle cx="390" cy="80" r="2.2" fill="#120D16"/>
<path d="M399 96 L405.5 104 L399 112 L392.5 104 Z" fill="#E4A93C"/>
</g>
<circle cx="392" cy="134" r="12" fill="#6B4630"/>
</svg>
