<svg width="680" height="500" viewBox="0 0 680 500" role="img" xmlns="http://www.w3.org/2000/svg"><title>شعار تاكي — وجه بشماغ أحمر وذراع متكئة على متكى عنابي</title><desc>رسمة فيكتور بدون نص: متكى مخملي عنابي عريض من الأمام مليء بمعينات ذهبية، فوقه وجه غامق بدون ملامح بشماغ أحمر وعقال، وذراع كوعها على المتكى ترفع جوالاً</desc>
<circle cx="472" cy="182" r="42" fill="#BE3A34"/>
<ellipse cx="472" cy="155" rx="30" ry="8" fill="none" stroke="#221812" stroke-width="7"/>
<circle cx="472" cy="190" r="30" fill="#6B4630"/>
<path d="M440 200 C 432 235, 435 260, 446 305" fill="none" stroke="#BE3A34" stroke-width="26" stroke-linecap="round"/>
<path d="M504 200 C 516 238, 514 272, 500 318" fill="none" stroke="#BE3A34" stroke-width="28" stroke-linecap="round"/>
<path d="M310 322 C 322 280, 345 235, 366 208" fill="none" stroke="#4A3529" stroke-width="24" stroke-linecap="round"/>
<rect x="140" y="330" width="400" height="130" rx="24" fill="#7A1322" stroke="#4E0A14" stroke-width="3"/>
<path d="M185 354 L193 362 L185 370 L177 362 Z" fill="#E4A93C"/>
<path d="M245 354 L253 362 L245 370 L237 362 Z" fill="#E4A93C"/>
<path d="M305 354 L313 362 L305 370 L297 362 Z" fill="#E4A93C"/>
<path d="M365 354 L373 362 L365 370 L357 362 Z" fill="#E4A93C"/>
<path d="M425 354 L433 362 L425 370 L417 362 Z" fill="#E4A93C"/>
<path d="M485 354 L493 362 L485 370 L477 362 Z" fill="#E4A93C"/>
<path d="M215 389 L223 397 L215 405 L207 397 Z" fill="#E4A93C"/>
<path d="M275 389 L283 397 L275 405 L267 397 Z" fill="#E4A93C"/>
<path d="M335 389 L343 397 L335 405 L327 397 Z" fill="#E4A93C"/>
<path d="M395 389 L403 397 L395 405 L387 397 Z" fill="#E4A93C"/>
<path d="M455 389 L463 397 L455 405 L447 397 Z" fill="#E4A93C"/>
<path d="M185 424 L193 432 L185 440 L177 432 Z" fill="#E4A93C"/>
<path d="M245 424 L253 432 L245 440 L237 432 Z" fill="#E4A93C"/>
<path d="M305 424 L313 432 L305 440 L297 432 Z" fill="#E4A93C"/>
<path d="M365 424 L373 432 L365 440 L357 432 Z" fill="#E4A93C"/>
<path d="M425 424 L433 432 L425 440 L417 432 Z" fill="#E4A93C"/>
<path d="M485 424 L493 432 L485 440 L477 432 Z" fill="#E4A93C"/>
<g transform="rotate(-14 376 172)">
<rect x="356" y="136" width="42" height="74" rx="9" fill="#241B26"/>
<rect x="361" y="143" width="32" height="56" rx="4" fill="#FFF6E9"/>
<path d="M377 159 L383.5 167 L377 175 L370.5 167 Z" fill="#E4A93C"/>
</g>
<circle cx="368" cy="206" r="12" fill="#6B4630"/>
</svg>
