<svg width="680" height="520" viewBox="0 0 680 520" role="img" xmlns="http://www.w3.org/2000/svg"><title>شعار تاكي — شخص متكئ على تكاية مخملية ثلاثية الأبعاد بدون سحاب</title><desc>رسمة فيكتور بدون نص: تكاية مخملية عنابية بزاوية ثلاثية الأبعاد مثل الصورة الأصلية وبدون سحاب، عليها معينات ذهبية كثيرة، وشخص بوجه غامق بدون ملامح وشماغ أحمر بعقال متكئ بكوعه عليها ويرفع جوالاً ظهره للمشاهد</desc>
<path d="M160 300 L295 245 L565 200 L430 255 Z" fill="#93202F" stroke="#4E0A14" stroke-width="2" stroke-linejoin="round"/>
<path d="M295 245 L565 200 L570 335 L300 430 Z" fill="#7A1322" stroke="#4E0A14" stroke-width="2" stroke-linejoin="round"/>
<path d="M160 300 L295 245 L300 430 L165 475 Z" fill="#5E0D19" stroke="#4E0A14" stroke-width="2" stroke-linejoin="round"/>
<path d="M330 250 L335 255 L330 260 L325 255 Z" fill="#E4A93C"/>
<path d="M420 235 L425 240 L420 245 L415 240 Z" fill="#E4A93C"/>
<path d="M500 220 L505 225 L500 230 L495 225 Z" fill="#E4A93C"/>
<path d="M205 332 L212 340 L205 348 L198 340 Z" fill="#E4A93C"/>
<path d="M250 307 L257 315 L250 323 L243 315 Z" fill="#E4A93C"/>
<path d="M215 392 L222 400 L215 408 L208 400 Z" fill="#E4A93C"/>
<path d="M258 367 L265 375 L258 383 L251 375 Z" fill="#E4A93C"/>
<path d="M228 432 L234 439 L228 446 L222 439 Z" fill="#E4A93C"/>
<path d="M340 272 L347 280 L340 288 L333 280 Z" fill="#E4A93C"/>
<path d="M400 260 L407 268 L400 276 L393 268 Z" fill="#E4A93C"/>
<path d="M460 248 L466.5 255 L460 262 L453.5 255 Z" fill="#E4A93C"/>
<path d="M520 236 L526 242 L520 248 L514 242 Z" fill="#E4A93C"/>
<path d="M330 332 L337 340 L330 348 L323 340 Z" fill="#E4A93C"/>
<path d="M390 318 L397 326 L390 334 L383 326 Z" fill="#E4A93C"/>
<path d="M450 305 L456.5 312 L450 319 L443.5 312 Z" fill="#E4A93C"/>
<path d="M510 291 L516 298 L510 305 L504 298 Z" fill="#E4A93C"/>
<path d="M335 388 L342 395 L335 402 L328 395 Z" fill="#E4A93C"/>
<path d="M395 371 L401.5 378 L395 385 L388.5 378 Z" fill="#E4A93C"/>
<path d="M455 353 L461 360 L455 367 L449 360 Z" fill="#E4A93C"/>
<path d="M480 228 C 482 195, 492 160, 504 132" fill="none" stroke="#4A3529" stroke-width="24" stroke-linecap="round"/>
<circle cx="585" cy="118" r="42" fill="#BE3A34"/>
<ellipse cx="585" cy="91" rx="30" ry="8" fill="none" stroke="#221812" stroke-width="7"/>
<circle cx="585" cy="126" r="30" fill="#6B4630"/>
<g transform="rotate(12 512 96)">
<rect x="492" y="58" width="42" height="76" rx="9" fill="#241B26"/>
<circle cx="504" cy="76" r="5" fill="#3A2F3E"/>
<circle cx="504" cy="76" r="2.2" fill="#120D16"/>
<path d="M513 92 L519.5 100 L513 108 L506.5 100 Z" fill="#E4A93C"/>
</g>
<circle cx="506" cy="130" r="12" fill="#6B4630"/>
</svg>
