<svg width="680" height="430" viewBox="0 0 680 430" role="img" xmlns="http://www.w3.org/2000/svg"><title>شعار تاكي — تكاية مربعة أمامية ومتكئ يتصفح جواله</title><desc>رسمة فيكتور مضغوطة بدون نص: تكاية مخملية عنابية مربعة من الأمام فقط عليها معينات ذهبية، كوع مسنود على حافتها العلوية، جوال ظهره للمشاهد قبال وجه غامق قريب منه، بشماغ أحمر على أعلى الرأس وعقال</desc>
<rect x="220" y="190" width="200" height="200" rx="18" fill="#7A1322" stroke="#4E0A14" stroke-width="3"/>
<path d="M270 223 L279 232 L270 241 L261 232 Z" fill="#E4A93C"/>
<path d="M370 223 L379 232 L370 241 L361 232 Z" fill="#E4A93C"/>
<path d="M245 276 L254 285 L245 294 L236 285 Z" fill="#E4A93C"/>
<path d="M320 276 L329 285 L320 294 L311 285 Z" fill="#E4A93C"/>
<path d="M395 276 L404 285 L395 294 L386 285 Z" fill="#E4A93C"/>
<path d="M270 329 L279 338 L270 347 L261 338 Z" fill="#E4A93C"/>
<path d="M370 329 L379 338 L370 347 L361 338 Z" fill="#E4A93C"/>
<path d="M320 363 L329 372 L320 381 L311 372 Z" fill="#E4A93C"/>
<path d="M365 190 C 372 180, 380 170, 388 162" fill="none" stroke="#4A3529" stroke-width="24" stroke-linecap="round"/>
<path d="M428 120 A 42 42 0 1 1 512 120 Z" fill="#BE3A34"/>
<ellipse cx="470" cy="84" rx="30" ry="8" fill="none" stroke="#221812" stroke-width="7"/>
<circle cx="470" cy="120" r="32" fill="#6B4630"/>
<g transform="rotate(8 400 120)">
<rect x="378" y="81" width="44" height="78" rx="9" fill="#241B26"/>
<circle cx="390" cy="100" r="5" fill="#3A2F3E"/>
<circle cx="390" cy="100" r="2.2" fill="#120D16"/>
<path d="M401 116 L407.5 124 L401 132 L394.5 124 Z" fill="#E4A93C"/>
</g>
<circle cx="394" cy="160" r="12.5" fill="#6B4630"/>
</svg>
