<svg width="680" height="510" viewBox="0 0 680 510" role="img" xmlns="http://www.w3.org/2000/svg"><title>شعار تاكي — متكئ على تكاية أقصر والجوال قبال وجهه</title><desc>رسمة فيكتور بدون نص: تكاية مخملية عنابية ثلاثية الأبعاد قصيرة بدون سحاب عليها معينات ذهبية، كوع مسنود فوق سطحها، جوال ظهره للمشاهد قبال وجه غامق بدون ملامح، والشماغ الأحمر على أعلى الرأس فقط مع عقال</desc>
<path d="M180 300 L310 248 L480 220 L350 272 Z" fill="#93202F" stroke="#4E0A14" stroke-width="2" stroke-linejoin="round"/>
<path d="M310 248 L480 220 L485 345 L315 428 Z" fill="#7A1322" stroke="#4E0A14" stroke-width="2" stroke-linejoin="round"/>
<path d="M180 300 L310 248 L315 428 L185 470 Z" fill="#5E0D19" stroke="#4E0A14" stroke-width="2" stroke-linejoin="round"/>
<path d="M350 256 L355 262 L350 268 L345 262 Z" fill="#E4A93C"/>
<path d="M420 234 L425 240 L420 246 L415 240 Z" fill="#E4A93C"/>
<path d="M225 322 L232 330 L225 338 L218 330 Z" fill="#E4A93C"/>
<path d="M268 300 L275 308 L268 316 L261 308 Z" fill="#E4A93C"/>
<path d="M235 382 L242 390 L235 398 L228 390 Z" fill="#E4A93C"/>
<path d="M272 357 L279 365 L272 373 L265 365 Z" fill="#E4A93C"/>
<path d="M222 428 L228 435 L222 442 L216 435 Z" fill="#E4A93C"/>
<path d="M355 267 L362 275 L355 283 L348 275 Z" fill="#E4A93C"/>
<path d="M410 254 L417 262 L410 270 L403 262 Z" fill="#E4A93C"/>
<path d="M455 243 L461 250 L455 257 L449 250 Z" fill="#E4A93C"/>
<path d="M350 322 L357 330 L350 338 L343 330 Z" fill="#E4A93C"/>
<path d="M405 307 L412 315 L405 323 L398 315 Z" fill="#E4A93C"/>
<path d="M455 293 L461 300 L455 307 L449 300 Z" fill="#E4A93C"/>
<path d="M355 374 L361.5 382 L355 390 L348.5 382 Z" fill="#E4A93C"/>
<path d="M408 354 L414.5 362 L408 370 L401.5 362 Z" fill="#E4A93C"/>
<path d="M405 230 C 420 214, 442 198, 462 190" fill="none" stroke="#4A3529" stroke-width="24" stroke-linecap="round"/>
<path d="M520 150 A 40 40 0 1 1 600 150 Z" fill="#BE3A34"/>
<ellipse cx="560" cy="116" rx="30" ry="8" fill="none" stroke="#221812" stroke-width="7"/>
<circle cx="560" cy="150" r="30" fill="#6B4630"/>
<g transform="rotate(8 470 150)">
<rect x="449" y="112" width="42" height="76" rx="9" fill="#241B26"/>
<circle cx="461" cy="130" r="5" fill="#3A2F3E"/>
<circle cx="461" cy="130" r="2.2" fill="#120D16"/>
<path d="M470 146 L476.5 154 L470 162 L463.5 154 Z" fill="#E4A93C"/>
</g>
<circle cx="464" cy="190" r="12" fill="#6B4630"/>
</svg>
